<svg xmlns="http://www.w3.org/2000/svg" height="480" width="640"><defs><clipPath id="a"><path fill-opacity=".67" d="M-85.333 0h682.67v512h-682.67z"/></clipPath></defs><g clip-path="url(#a)"><path fill="#006" d="M-160 0h960v480h-960z"/><g><path d="M-160 0v53.666l852.672 426.336H800v-53.664L-52.672.002H-160zm1120 0v53.664L107.328 480H0v-53.664L852.672 0H960z" fill="#fff"/><path d="M240 0v480h160V0H240zm-615 160v160h960V160h-960z" fill="#fff"/><path d="M-160 192v96h960v-96h-960zm592-372v480h96v-480h-96z" fill="#c00"/><path d="M-160 480l320-160h71.552l-320 160H-160zm160-930l320 160h-71.552L0-414.222V-450zm568.448 610l320-160H960L640 160h-71.552zM-105.84 180l-320-160h71.552L427.08 294.224V330z" fill="#c00"/></g></g></svg>